<svg width="186" height="143" viewBox="0 0 186 143" fill="none" xmlns="http://www.w3.org/2000/svg">
<path d="M18.38 111.898V108.352C18.38 108.248 18.384 108.134 18.392 108.01C18.4 107.886 18.412 107.76 18.428 107.632L15.296 111.898H18.38ZM20.618 111.898V112.51C20.618 112.574 20.598 112.628 20.558 112.672C20.522 112.716 20.464 112.738 20.384 112.738H19.316V115H18.38V112.738H14.564C14.484 112.738 14.414 112.716 14.354 112.672C14.298 112.624 14.262 112.566 14.246 112.498L14.138 111.952L18.32 106.402H19.316V111.898H20.618Z" fill="white"/>
<path d="M41.48 114.244C41.76 114.244 42.01 114.206 42.23 114.13C42.454 114.05 42.642 113.94 42.794 113.8C42.95 113.656 43.068 113.486 43.148 113.29C43.232 113.09 43.274 112.87 43.274 112.63C43.274 112.334 43.224 112.082 43.124 111.874C43.028 111.662 42.896 111.49 42.728 111.358C42.564 111.226 42.374 111.13 42.158 111.07C41.942 111.006 41.716 110.974 41.48 110.974C41.244 110.974 41.018 111.006 40.802 111.07C40.586 111.13 40.394 111.226 40.226 111.358C40.062 111.49 39.93 111.662 39.83 111.874C39.734 112.082 39.686 112.334 39.686 112.63C39.686 112.87 39.726 113.09 39.806 113.29C39.89 113.486 40.008 113.656 40.16 113.8C40.316 113.94 40.504 114.05 40.724 114.13C40.948 114.206 41.2 114.244 41.48 114.244ZM41.48 107.134C41.224 107.134 40.998 107.172 40.802 107.248C40.61 107.324 40.448 107.428 40.316 107.56C40.188 107.692 40.09 107.846 40.022 108.022C39.958 108.198 39.926 108.386 39.926 108.586C39.926 108.782 39.954 108.972 40.01 109.156C40.066 109.34 40.156 109.504 40.28 109.648C40.404 109.788 40.564 109.902 40.76 109.99C40.96 110.074 41.2 110.116 41.48 110.116C41.76 110.116 41.998 110.074 42.194 109.99C42.394 109.902 42.556 109.788 42.68 109.648C42.804 109.504 42.894 109.34 42.95 109.156C43.006 108.972 43.034 108.782 43.034 108.586C43.034 108.386 43 108.198 42.932 108.022C42.868 107.846 42.77 107.692 42.638 107.56C42.51 107.428 42.348 107.324 42.152 107.248C41.96 107.172 41.736 107.134 41.48 107.134ZM42.71 110.518C43.246 110.67 43.658 110.924 43.946 111.28C44.234 111.636 44.378 112.092 44.378 112.648C44.378 113.024 44.306 113.364 44.162 113.668C44.022 113.968 43.824 114.224 43.568 114.436C43.316 114.648 43.012 114.812 42.656 114.928C42.3 115.04 41.908 115.096 41.48 115.096C41.052 115.096 40.66 115.04 40.304 114.928C39.948 114.812 39.642 114.648 39.386 114.436C39.13 114.224 38.932 113.968 38.792 113.668C38.652 113.364 38.582 113.024 38.582 112.648C38.582 112.092 38.726 111.636 39.014 111.28C39.302 110.924 39.714 110.67 40.25 110.518C39.798 110.35 39.456 110.1 39.224 109.768C38.996 109.432 38.882 109.032 38.882 108.568C38.882 108.252 38.944 107.956 39.068 107.68C39.192 107.404 39.368 107.164 39.596 106.96C39.824 106.756 40.096 106.596 40.412 106.48C40.732 106.364 41.088 106.306 41.48 106.306C41.868 106.306 42.222 106.364 42.542 106.48C42.862 106.596 43.136 106.756 43.364 106.96C43.592 107.164 43.768 107.404 43.892 107.68C44.016 107.956 44.078 108.252 44.078 108.568C44.078 109.032 43.962 109.432 43.73 109.768C43.502 110.1 43.162 110.35 42.71 110.518ZM53.9533 113.986C54.0693 113.986 54.1613 114.02 54.2292 114.088C54.2973 114.156 54.3313 114.244 54.3313 114.352V115H48.5953V114.634C48.5953 114.558 48.6113 114.48 48.6433 114.4C48.6753 114.32 48.7253 114.246 48.7933 114.178L51.5473 111.412C51.7753 111.18 51.9833 110.958 52.1713 110.746C52.3593 110.53 52.5193 110.314 52.6513 110.098C52.7833 109.882 52.8853 109.664 52.9573 109.444C53.0293 109.22 53.0653 108.982 53.0653 108.73C53.0653 108.478 53.0253 108.258 52.9453 108.07C52.8653 107.878 52.7553 107.72 52.6153 107.596C52.4793 107.472 52.3173 107.38 52.1293 107.32C51.9413 107.256 51.7393 107.224 51.5233 107.224C51.3033 107.224 51.1013 107.256 50.9173 107.32C50.7333 107.384 50.5693 107.474 50.4253 107.59C50.2853 107.702 50.1673 107.836 50.0713 107.992C49.9753 108.148 49.9073 108.32 49.8673 108.508C49.8193 108.648 49.7533 108.742 49.6693 108.79C49.5893 108.834 49.4753 108.846 49.3273 108.826L48.7693 108.73C48.8253 108.338 48.9333 107.992 49.0933 107.692C49.2573 107.388 49.4613 107.134 49.7053 106.93C49.9533 106.726 50.2353 106.572 50.5513 106.468C50.8673 106.36 51.2093 106.306 51.5773 106.306C51.9413 106.306 52.2813 106.36 52.5973 106.468C52.9133 106.576 53.1873 106.734 53.4193 106.942C53.6513 107.146 53.8333 107.396 53.9653 107.692C54.0973 107.988 54.1633 108.324 54.1633 108.7C54.1633 109.02 54.1153 109.318 54.0193 109.594C53.9233 109.866 53.7933 110.126 53.6293 110.374C53.4653 110.622 53.2753 110.864 53.0593 111.1C52.8473 111.336 52.6213 111.574 52.3813 111.814L50.1133 114.13C50.2733 114.086 50.4353 114.052 50.5993 114.028C50.7633 114 50.9213 113.986 51.0733 113.986H53.9533ZM64.6625 110.704C64.6625 111.456 64.5805 112.108 64.4165 112.66C64.2565 113.208 64.0365 113.662 63.7565 114.022C63.4765 114.382 63.1445 114.65 62.7605 114.826C62.3805 115.002 61.9725 115.09 61.5365 115.09C61.0965 115.09 60.6865 115.002 60.3065 114.826C59.9305 114.65 59.6025 114.382 59.3225 114.022C59.0425 113.662 58.8225 113.208 58.6625 112.66C58.5025 112.108 58.4225 111.456 58.4225 110.704C58.4225 109.952 58.5025 109.3 58.6625 108.748C58.8225 108.196 59.0425 107.74 59.3225 107.38C59.6025 107.016 59.9305 106.746 60.3065 106.57C60.6865 106.394 61.0965 106.306 61.5365 106.306C61.9725 106.306 62.3805 106.394 62.7605 106.57C63.1445 106.746 63.4765 107.016 63.7565 107.38C64.0365 107.74 64.2565 108.196 64.4165 108.748C64.5805 109.3 64.6625 109.952 64.6625 110.704ZM63.5525 110.704C63.5525 110.048 63.4965 109.498 63.3845 109.054C63.2765 108.606 63.1285 108.246 62.9405 107.974C62.7565 107.702 62.5425 107.508 62.2985 107.392C62.0545 107.272 61.8005 107.212 61.5365 107.212C61.2725 107.212 61.0185 107.272 60.7745 107.392C60.5305 107.508 60.3165 107.702 60.1325 107.974C59.9485 108.246 59.8005 108.606 59.6885 109.054C59.5805 109.498 59.5265 110.048 59.5265 110.704C59.5265 111.36 59.5805 111.91 59.6885 112.354C59.8005 112.798 59.9485 113.156 60.1325 113.428C60.3165 113.7 60.5305 113.896 60.7745 114.016C61.0185 114.132 61.2725 114.19 61.5365 114.19C61.8005 114.19 62.0545 114.132 62.2985 114.016C62.5425 113.896 62.7565 113.7 62.9405 113.428C63.1285 113.156 63.2765 112.798 63.3845 112.354C63.4965 111.91 63.5525 111.36 63.5525 110.704ZM74.6938 110.704C74.6938 111.456 74.6118 112.108 74.4478 112.66C74.2878 113.208 74.0678 113.662 73.7878 114.022C73.5078 114.382 73.1758 114.65 72.7918 114.826C72.4118 115.002 72.0038 115.09 71.5678 115.09C71.1278 115.09 70.7178 115.002 70.3378 114.826C69.9618 114.65 69.6338 114.382 69.3538 114.022C69.0738 113.662 68.8538 113.208 68.6938 112.66C68.5338 112.108 68.4538 111.456 68.4538 110.704C68.4538 109.952 68.5338 109.3 68.6938 108.748C68.8538 108.196 69.0738 107.74 69.3538 107.38C69.6338 107.016 69.9618 106.746 70.3378 106.57C70.7178 106.394 71.1278 106.306 71.5678 106.306C72.0038 106.306 72.4118 106.394 72.7918 106.57C73.1758 106.746 73.5078 107.016 73.7878 107.38C74.0678 107.74 74.2878 108.196 74.4478 108.748C74.6118 109.3 74.6938 109.952 74.6938 110.704ZM73.5838 110.704C73.5838 110.048 73.5278 109.498 73.4158 109.054C73.3078 108.606 73.1598 108.246 72.9718 107.974C72.7878 107.702 72.5738 107.508 72.3298 107.392C72.0858 107.272 71.8318 107.212 71.5678 107.212C71.3038 107.212 71.0498 107.272 70.8058 107.392C70.5618 107.508 70.3478 107.702 70.1638 107.974C69.9798 108.246 69.8318 108.606 69.7198 109.054C69.6118 109.498 69.5578 110.048 69.5578 110.704C69.5578 111.36 69.6118 111.91 69.7198 112.354C69.8318 112.798 69.9798 113.156 70.1638 113.428C70.3478 113.7 70.5618 113.896 70.8058 114.016C71.0498 114.132 71.3038 114.19 71.5678 114.19C71.8318 114.19 72.0858 114.132 72.3298 114.016C72.5738 113.896 72.7878 113.7 72.9718 113.428C73.1598 113.156 73.3078 112.798 73.4158 112.354C73.5278 111.91 73.5838 111.36 73.5838 110.704ZM84.047 113.986C84.163 113.986 84.255 114.02 84.323 114.088C84.391 114.156 84.425 114.244 84.425 114.352V115H78.689V114.634C78.689 114.558 78.705 114.48 78.737 114.4C78.769 114.32 78.819 114.246 78.887 114.178L81.641 111.412C81.869 111.18 82.077 110.958 82.265 110.746C82.453 110.53 82.613 110.314 82.745 110.098C82.877 109.882 82.979 109.664 83.051 109.444C83.123 109.22 83.159 108.982 83.159 108.73C83.159 108.478 83.119 108.258 83.039 108.07C82.959 107.878 82.849 107.72 82.709 107.596C82.573 107.472 82.411 107.38 82.223 107.32C82.035 107.256 81.833 107.224 81.617 107.224C81.397 107.224 81.195 107.256 81.011 107.32C80.827 107.384 80.663 107.474 80.519 107.59C80.379 107.702 80.261 107.836 80.165 107.992C80.069 108.148 80.001 108.32 79.961 108.508C79.913 108.648 79.847 108.742 79.763 108.79C79.683 108.834 79.569 108.846 79.421 108.826L78.863 108.73C78.919 108.338 79.027 107.992 79.187 107.692C79.351 107.388 79.555 107.134 79.799 106.93C80.047 106.726 80.329 106.572 80.645 106.468C80.961 106.36 81.303 106.306 81.671 106.306C82.035 106.306 82.375 106.36 82.691 106.468C83.007 106.576 83.281 106.734 83.513 106.942C83.745 107.146 83.927 107.396 84.059 107.692C84.191 107.988 84.257 108.324 84.257 108.7C84.257 109.02 84.209 109.318 84.113 109.594C84.017 109.866 83.887 110.126 83.723 110.374C83.559 110.622 83.369 110.864 83.153 111.1C82.941 111.336 82.715 111.574 82.475 111.814L80.207 114.13C80.367 114.086 80.529 114.052 80.693 114.028C80.857 114 81.015 113.986 81.167 113.986H84.047ZM92.5363 111.898V108.352C92.5363 108.248 92.5403 108.134 92.5483 108.01C92.5563 107.886 92.5683 107.76 92.5843 107.632L89.4523 111.898H92.5363ZM94.7743 111.898V112.51C94.7743 112.574 94.7543 112.628 94.7143 112.672C94.6783 112.716 94.6203 112.738 94.5403 112.738H93.4723V115H92.5363V112.738H88.7203C88.6403 112.738 88.5703 112.716 88.5103 112.672C88.4543 112.624 88.4183 112.566 88.4023 112.498L88.2943 111.952L92.4763 106.402H93.4723V111.898H94.7743Z" fill="white"/>
<path d="M122.486 106.402V106.882C122.486 107.018 122.47 107.13 122.438 107.218C122.41 107.306 122.382 107.38 122.354 107.44L118.79 114.622C118.738 114.726 118.666 114.816 118.574 114.892C118.482 114.964 118.36 115 118.208 115H117.44L121.052 107.908C121.104 107.808 121.158 107.716 121.214 107.632C121.27 107.548 121.33 107.468 121.394 107.392H116.906C116.838 107.392 116.778 107.366 116.726 107.314C116.674 107.258 116.648 107.196 116.648 107.128V106.402H122.486ZM132.631 110.704C132.631 111.456 132.549 112.108 132.385 112.66C132.225 113.208 132.005 113.662 131.725 114.022C131.445 114.382 131.113 114.65 130.729 114.826C130.349 115.002 129.941 115.09 129.505 115.09C129.065 115.09 128.655 115.002 128.275 114.826C127.899 114.65 127.571 114.382 127.291 114.022C127.011 113.662 126.791 113.208 126.631 112.66C126.471 112.108 126.391 111.456 126.391 110.704C126.391 109.952 126.471 109.3 126.631 108.748C126.791 108.196 127.011 107.74 127.291 107.38C127.571 107.016 127.899 106.746 128.275 106.57C128.655 106.394 129.065 106.306 129.505 106.306C129.941 106.306 130.349 106.394 130.729 106.57C131.113 106.746 131.445 107.016 131.725 107.38C132.005 107.74 132.225 108.196 132.385 108.748C132.549 109.3 132.631 109.952 132.631 110.704ZM131.521 110.704C131.521 110.048 131.465 109.498 131.353 109.054C131.245 108.606 131.097 108.246 130.909 107.974C130.725 107.702 130.511 107.508 130.267 107.392C130.023 107.272 129.769 107.212 129.505 107.212C129.241 107.212 128.987 107.272 128.743 107.392C128.499 107.508 128.285 107.702 128.101 107.974C127.917 108.246 127.769 108.606 127.657 109.054C127.549 109.498 127.495 110.048 127.495 110.704C127.495 111.36 127.549 111.91 127.657 112.354C127.769 112.798 127.917 113.156 128.101 113.428C128.285 113.7 128.499 113.896 128.743 114.016C128.987 114.132 129.241 114.19 129.505 114.19C129.769 114.19 130.023 114.132 130.267 114.016C130.511 113.896 130.725 113.7 130.909 113.428C131.097 113.156 131.245 112.798 131.353 112.354C131.465 111.91 131.521 111.36 131.521 110.704ZM142.663 110.704C142.663 111.456 142.581 112.108 142.417 112.66C142.257 113.208 142.037 113.662 141.757 114.022C141.477 114.382 141.145 114.65 140.761 114.826C140.381 115.002 139.973 115.09 139.537 115.09C139.097 115.09 138.687 115.002 138.307 114.826C137.931 114.65 137.603 114.382 137.323 114.022C137.043 113.662 136.823 113.208 136.663 112.66C136.503 112.108 136.423 111.456 136.423 110.704C136.423 109.952 136.503 109.3 136.663 108.748C136.823 108.196 137.043 107.74 137.323 107.38C137.603 107.016 137.931 106.746 138.307 106.57C138.687 106.394 139.097 106.306 139.537 106.306C139.973 106.306 140.381 106.394 140.761 106.57C141.145 106.746 141.477 107.016 141.757 107.38C142.037 107.74 142.257 108.196 142.417 108.748C142.581 109.3 142.663 109.952 142.663 110.704ZM141.553 110.704C141.553 110.048 141.497 109.498 141.385 109.054C141.277 108.606 141.129 108.246 140.941 107.974C140.757 107.702 140.543 107.508 140.299 107.392C140.055 107.272 139.801 107.212 139.537 107.212C139.273 107.212 139.019 107.272 138.775 107.392C138.531 107.508 138.317 107.702 138.133 107.974C137.949 108.246 137.801 108.606 137.689 109.054C137.581 109.498 137.527 110.048 137.527 110.704C137.527 111.36 137.581 111.91 137.689 112.354C137.801 112.798 137.949 113.156 138.133 113.428C138.317 113.7 138.531 113.896 138.775 114.016C139.019 114.132 139.273 114.19 139.537 114.19C139.801 114.19 140.055 114.132 140.299 114.016C140.543 113.896 140.757 113.7 140.941 113.428C141.129 113.156 141.277 112.798 141.385 112.354C141.497 111.91 141.553 111.36 141.553 110.704ZM152.694 110.704C152.694 111.456 152.612 112.108 152.448 112.66C152.288 113.208 152.068 113.662 151.788 114.022C151.508 114.382 151.176 114.65 150.792 114.826C150.412 115.002 150.004 115.09 149.568 115.09C149.128 115.09 148.718 115.002 148.338 114.826C147.962 114.65 147.634 114.382 147.354 114.022C147.074 113.662 146.854 113.208 146.694 112.66C146.534 112.108 146.454 111.456 146.454 110.704C146.454 109.952 146.534 109.3 146.694 108.748C146.854 108.196 147.074 107.74 147.354 107.38C147.634 107.016 147.962 106.746 148.338 106.57C148.718 106.394 149.128 106.306 149.568 106.306C150.004 106.306 150.412 106.394 150.792 106.57C151.176 106.746 151.508 107.016 151.788 107.38C152.068 107.74 152.288 108.196 152.448 108.748C152.612 109.3 152.694 109.952 152.694 110.704ZM151.584 110.704C151.584 110.048 151.528 109.498 151.416 109.054C151.308 108.606 151.16 108.246 150.972 107.974C150.788 107.702 150.574 107.508 150.33 107.392C150.086 107.272 149.832 107.212 149.568 107.212C149.304 107.212 149.05 107.272 148.806 107.392C148.562 107.508 148.348 107.702 148.164 107.974C147.98 108.246 147.832 108.606 147.72 109.054C147.612 109.498 147.558 110.048 147.558 110.704C147.558 111.36 147.612 111.91 147.72 112.354C147.832 112.798 147.98 113.156 148.164 113.428C148.348 113.7 148.562 113.896 148.806 114.016C149.05 114.132 149.304 114.19 149.568 114.19C149.832 114.19 150.086 114.132 150.33 114.016C150.574 113.896 150.788 113.7 150.972 113.428C151.16 113.156 151.308 112.798 151.416 112.354C151.528 111.91 151.584 111.36 151.584 110.704ZM162.233 114.184V115H157.625V114.184H159.467V108.322C159.467 108.146 159.473 107.968 159.485 107.788L157.955 109.102C157.903 109.146 157.851 109.174 157.799 109.186C157.747 109.194 157.699 109.194 157.655 109.186C157.611 109.178 157.569 109.162 157.529 109.138C157.493 109.114 157.465 109.088 157.445 109.06L157.109 108.598L159.671 106.384H160.541V114.184H162.233ZM169.624 114.208C169.912 114.208 170.172 114.162 170.404 114.07C170.64 113.978 170.84 113.85 171.004 113.686C171.172 113.522 171.3 113.328 171.388 113.104C171.48 112.88 171.526 112.636 171.526 112.372C171.526 112.092 171.482 111.84 171.394 111.616C171.306 111.388 171.18 111.196 171.016 111.04C170.856 110.88 170.664 110.758 170.44 110.674C170.216 110.59 169.97 110.548 169.702 110.548C169.414 110.548 169.154 110.598 168.922 110.698C168.69 110.794 168.492 110.926 168.328 111.094C168.168 111.258 168.044 111.45 167.956 111.67C167.872 111.886 167.83 112.112 167.83 112.348C167.83 112.624 167.87 112.876 167.95 113.104C168.03 113.332 168.146 113.528 168.298 113.692C168.454 113.856 168.642 113.984 168.862 114.076C169.086 114.164 169.34 114.208 169.624 114.208ZM169 109.624C168.924 109.72 168.85 109.814 168.778 109.906C168.71 109.994 168.644 110.082 168.58 110.17C168.784 110.03 169.008 109.922 169.252 109.846C169.496 109.77 169.762 109.732 170.05 109.732C170.398 109.732 170.726 109.79 171.034 109.906C171.342 110.018 171.61 110.184 171.838 110.404C172.07 110.62 172.254 110.888 172.39 111.208C172.526 111.524 172.594 111.886 172.594 112.294C172.594 112.69 172.522 113.058 172.378 113.398C172.234 113.738 172.032 114.034 171.772 114.286C171.516 114.538 171.206 114.736 170.842 114.88C170.482 115.024 170.084 115.096 169.648 115.096C169.216 115.096 168.824 115.028 168.472 114.892C168.12 114.752 167.82 114.556 167.572 114.304C167.328 114.048 167.138 113.74 167.002 113.38C166.87 113.016 166.804 112.61 166.804 112.162C166.804 111.786 166.886 111.386 167.05 110.962C167.218 110.534 167.484 110.078 167.848 109.594L170.032 106.66C170.088 106.588 170.164 106.528 170.26 106.48C170.36 106.428 170.474 106.402 170.602 106.402H171.55L169 109.624Z" fill="white"/>
<rect x="24" width="2" height="117" fill="white"/>
<rect x="29" width="2" height="117" fill="white"/>
<rect x="34" width="2" height="103" fill="white"/>
<rect x="41" width="5" height="103" fill="white"/>
<rect x="56" width="3" height="103" fill="white"/>
<rect x="64" width="3" height="103" fill="white"/>
<rect x="72" width="2" height="103" fill="white"/>
<rect x="77" width="5" height="103" fill="white"/>
<rect x="84" width="2" height="103" fill="white"/>
<rect x="91" width="3" height="103" fill="white"/>
<rect x="96" width="3" height="103" fill="white"/>
<rect x="101" width="3" height="117" fill="white"/>
<rect x="106" width="3" height="117" fill="white"/>
<rect x="111" width="4" height="103" fill="white"/>
<rect x="120" width="2" height="103" fill="white"/>
<rect x="125" width="3" height="103" fill="white"/>
<rect x="131" width="3" height="103" fill="white"/>
<rect x="139" width="4" height="103" fill="white"/>
<rect x="148" width="4" height="103" fill="white"/>
<rect x="154" width="4" height="103" fill="white"/>
<rect x="160" width="4" height="103" fill="white"/>
<rect x="169" width="5" height="103" fill="white"/>
<rect x="179" width="2" height="117" fill="white"/>
<rect x="184" width="2" height="117" fill="white"/>
<rect x="48" width="3" height="103" fill="white"/>
<line x1="8.5" y1="117" x2="8.5" y2="126" stroke="white"/>
<line x1="57.4583" y1="117" x2="57.4583" y2="126" stroke="white"/>
<rect x="8" y="126" width="50" height="1" fill="white"/>
<path d="M3.384 137.668C3.36267 137.697 3.34133 137.72 3.32 137.736C3.29867 137.752 3.26933 137.76 3.232 137.76C3.192 137.76 3.148 137.744 3.1 137.712C3.052 137.677 2.992 137.64 2.92 137.6C2.85067 137.56 2.764 137.524 2.66 137.492C2.55867 137.457 2.43333 137.44 2.284 137.44C2.084 137.44 1.908 137.476 1.756 137.548C1.604 137.617 1.476 137.719 1.372 137.852C1.27067 137.985 1.19333 138.147 1.14 138.336C1.08933 138.525 1.064 138.737 1.064 138.972C1.064 139.217 1.092 139.436 1.148 139.628C1.204 139.817 1.28267 139.977 1.384 140.108C1.488 140.236 1.612 140.335 1.756 140.404C1.90267 140.471 2.06667 140.504 2.248 140.504C2.42133 140.504 2.564 140.484 2.676 140.444C2.788 140.401 2.88 140.355 2.952 140.304C3.02667 140.253 3.088 140.208 3.136 140.168C3.18667 140.125 3.236 140.104 3.284 140.104C3.34267 140.104 3.388 140.127 3.42 140.172L3.62 140.432C3.532 140.541 3.432 140.635 3.32 140.712C3.208 140.789 3.08667 140.855 2.956 140.908C2.828 140.959 2.69333 140.996 2.552 141.02C2.41067 141.044 2.26667 141.056 2.12 141.056C1.86667 141.056 1.63067 141.009 1.412 140.916C1.196 140.823 1.008 140.688 0.848 140.512C0.688 140.333 0.562667 140.115 0.472 139.856C0.381333 139.597 0.336 139.303 0.336 138.972C0.336 138.671 0.377333 138.392 0.46 138.136C0.545333 137.88 0.668 137.66 0.828 137.476C0.990667 137.289 1.18933 137.144 1.424 137.04C1.66133 136.936 1.93333 136.884 2.24 136.884C2.52533 136.884 2.776 136.931 2.992 137.024C3.21067 137.115 3.404 137.244 3.572 137.412L3.384 137.668ZM6.022 136.884C6.318 136.884 6.58467 136.933 6.822 137.032C7.05933 137.131 7.262 137.271 7.43 137.452C7.598 137.633 7.726 137.853 7.814 138.112C7.90467 138.368 7.95 138.655 7.95 138.972C7.95 139.292 7.90467 139.58 7.814 139.836C7.726 140.092 7.598 140.311 7.43 140.492C7.262 140.673 7.05933 140.813 6.822 140.912C6.58467 141.008 6.318 141.056 6.022 141.056C5.72333 141.056 5.454 141.008 5.214 140.912C4.97667 140.813 4.774 140.673 4.606 140.492C4.438 140.311 4.30867 140.092 4.218 139.836C4.13 139.58 4.086 139.292 4.086 138.972C4.086 138.655 4.13 138.368 4.218 138.112C4.30867 137.853 4.438 137.633 4.606 137.452C4.774 137.271 4.97667 137.131 5.214 137.032C5.454 136.933 5.72333 136.884 6.022 136.884ZM6.022 140.5C6.422 140.5 6.72067 140.367 6.918 140.1C7.11533 139.831 7.214 139.456 7.214 138.976C7.214 138.493 7.11533 138.117 6.918 137.848C6.72067 137.579 6.422 137.444 6.022 137.444C5.81933 137.444 5.642 137.479 5.49 137.548C5.34067 137.617 5.21533 137.717 5.114 137.848C5.01533 137.979 4.94067 138.14 4.89 138.332C4.842 138.521 4.818 138.736 4.818 138.976C4.818 139.456 4.91667 139.831 5.114 140.1C5.314 140.367 5.61667 140.5 6.022 140.5ZM11.4931 137.912C11.3597 137.733 11.2157 137.609 11.0611 137.54C10.9064 137.468 10.7331 137.432 10.5411 137.432C10.1651 137.432 9.87573 137.567 9.67306 137.836C9.4704 138.105 9.36906 138.489 9.36906 138.988C9.36906 139.252 9.39173 139.479 9.43706 139.668C9.4824 139.855 9.54906 140.009 9.63706 140.132C9.72506 140.252 9.83306 140.34 9.96106 140.396C10.0891 140.452 10.2344 140.48 10.3971 140.48C10.6317 140.48 10.8357 140.427 11.0091 140.32C11.1851 140.213 11.3464 140.063 11.4931 139.868V137.912ZM12.2051 135.108V141H11.7811C11.6797 141 11.6157 140.951 11.5891 140.852L11.5251 140.36C11.3517 140.568 11.1544 140.736 10.9331 140.864C10.7117 140.992 10.4557 141.056 10.1651 141.056C9.93306 141.056 9.7224 141.012 9.53306 140.924C9.34373 140.833 9.1824 140.701 9.04906 140.528C8.91573 140.355 8.81306 140.139 8.74106 139.88C8.66906 139.621 8.63306 139.324 8.63306 138.988C8.63306 138.689 8.67306 138.412 8.75306 138.156C8.83306 137.897 8.94773 137.673 9.09706 137.484C9.2464 137.295 9.42906 137.147 9.64506 137.04C9.86373 136.931 10.1091 136.876 10.3811 136.876C10.6291 136.876 10.8411 136.919 11.0171 137.004C11.1957 137.087 11.3544 137.203 11.4931 137.352V135.108H12.2051ZM16.0416 138.532C16.0416 138.367 16.0176 138.216 15.9696 138.08C15.9243 137.941 15.8563 137.823 15.7656 137.724C15.6776 137.623 15.5696 137.545 15.4416 137.492C15.3136 137.436 15.1683 137.408 15.0056 137.408C14.6643 137.408 14.3936 137.508 14.1936 137.708C13.9963 137.905 13.8736 138.18 13.8256 138.532H16.0416ZM16.6176 140.432C16.5296 140.539 16.4243 140.632 16.3016 140.712C16.179 140.789 16.047 140.853 15.9056 140.904C15.767 140.955 15.623 140.992 15.4736 141.016C15.3243 141.043 15.1763 141.056 15.0296 141.056C14.7496 141.056 14.491 141.009 14.2536 140.916C14.019 140.82 13.815 140.681 13.6416 140.5C13.471 140.316 13.3376 140.089 13.2416 139.82C13.1456 139.551 13.0976 139.241 13.0976 138.892C13.0976 138.609 13.1403 138.345 13.2256 138.1C13.3136 137.855 13.439 137.643 13.6016 137.464C13.7643 137.283 13.963 137.141 14.1976 137.04C14.4323 136.936 14.6963 136.884 14.9896 136.884C15.2323 136.884 15.4563 136.925 15.6616 137.008C15.8696 137.088 16.0483 137.205 16.1976 137.36C16.3496 137.512 16.4683 137.701 16.5536 137.928C16.639 138.152 16.6816 138.408 16.6816 138.696C16.6816 138.808 16.6696 138.883 16.6456 138.92C16.6216 138.957 16.5763 138.976 16.5096 138.976H13.8016C13.8096 139.232 13.8443 139.455 13.9056 139.644C13.9696 139.833 14.0576 139.992 14.1696 140.12C14.2816 140.245 14.415 140.34 14.5696 140.404C14.7243 140.465 14.8976 140.496 15.0896 140.496C15.2683 140.496 15.4216 140.476 15.5496 140.436C15.6803 140.393 15.7923 140.348 15.8856 140.3C15.979 140.252 16.0563 140.208 16.1176 140.168C16.1816 140.125 16.2363 140.104 16.2816 140.104C16.3403 140.104 16.3856 140.127 16.4176 140.172L16.6176 140.432ZM21.3111 136.884C21.6071 136.884 21.8737 136.933 22.1111 137.032C22.3484 137.131 22.5511 137.271 22.7191 137.452C22.8871 137.633 23.0151 137.853 23.1031 138.112C23.1937 138.368 23.2391 138.655 23.2391 138.972C23.2391 139.292 23.1937 139.58 23.1031 139.836C23.0151 140.092 22.8871 140.311 22.7191 140.492C22.5511 140.673 22.3484 140.813 22.1111 140.912C21.8737 141.008 21.6071 141.056 21.3111 141.056C21.0124 141.056 20.7431 141.008 20.5031 140.912C20.2657 140.813 20.0631 140.673 19.8951 140.492C19.7271 140.311 19.5977 140.092 19.5071 139.836C19.4191 139.58 19.3751 139.292 19.3751 138.972C19.3751 138.655 19.4191 138.368 19.5071 138.112C19.5977 137.853 19.7271 137.633 19.8951 137.452C20.0631 137.271 20.2657 137.131 20.5031 137.032C20.7431 136.933 21.0124 136.884 21.3111 136.884ZM21.3111 140.5C21.7111 140.5 22.0097 140.367 22.2071 140.1C22.4044 139.831 22.5031 139.456 22.5031 138.976C22.5031 138.493 22.4044 138.117 22.2071 137.848C22.0097 137.579 21.7111 137.444 21.3111 137.444C21.1084 137.444 20.9311 137.479 20.7791 137.548C20.6297 137.617 20.5044 137.717 20.4031 137.848C20.3044 137.979 20.2297 138.14 20.1791 138.332C20.1311 138.521 20.1071 138.736 20.1071 138.976C20.1071 139.456 20.2057 139.831 20.4031 140.1C20.6031 140.367 20.9057 140.5 21.3111 140.5ZM24.3202 141V137.556L23.8722 137.504C23.8162 137.491 23.7695 137.471 23.7322 137.444C23.6975 137.415 23.6802 137.373 23.6802 137.32V137.028H24.3202V136.636C24.3202 136.404 24.3522 136.199 24.4162 136.02C24.4829 135.839 24.5762 135.687 24.6962 135.564C24.8189 135.439 24.9655 135.344 25.1362 135.28C25.3069 135.216 25.4989 135.184 25.7122 135.184C25.8935 135.184 26.0602 135.211 26.2122 135.264L26.1962 135.62C26.1909 135.684 26.1549 135.719 26.0882 135.724C26.0242 135.729 25.9375 135.732 25.8282 135.732C25.7055 135.732 25.5935 135.748 25.4922 135.78C25.3935 135.812 25.3082 135.864 25.2362 135.936C25.1642 136.008 25.1082 136.103 25.0682 136.22C25.0309 136.337 25.0122 136.483 25.0122 136.656V137.028H26.1802V137.544H25.0362V141H24.3202ZM30.0033 141.064C29.6833 141.064 29.4366 140.975 29.2633 140.796C29.0926 140.617 29.0073 140.36 29.0073 140.024V137.544H28.5193C28.4766 137.544 28.4406 137.532 28.4113 137.508C28.382 137.481 28.3673 137.441 28.3673 137.388V137.104L29.0313 137.02L29.1953 135.768C29.2033 135.728 29.2206 135.696 29.2473 135.672C29.2766 135.645 29.314 135.632 29.3593 135.632H29.7193V137.028H30.8913V137.544H29.7193V139.976C29.7193 140.147 29.7606 140.273 29.8433 140.356C29.926 140.439 30.0326 140.48 30.1633 140.48C30.238 140.48 30.302 140.471 30.3553 140.452C30.4113 140.431 30.4593 140.408 30.4993 140.384C30.5393 140.36 30.5726 140.339 30.5993 140.32C30.6286 140.299 30.654 140.288 30.6753 140.288C30.7126 140.288 30.746 140.311 30.7753 140.356L30.9833 140.696C30.8606 140.811 30.7126 140.901 30.5393 140.968C30.366 141.032 30.1873 141.064 30.0033 141.064ZM32.3425 137.488C32.5158 137.304 32.7078 137.157 32.9185 137.048C33.1292 136.939 33.3718 136.884 33.6465 136.884C33.8678 136.884 34.0625 136.921 34.2305 136.996C34.4012 137.068 34.5425 137.172 34.6545 137.308C34.7692 137.441 34.8558 137.603 34.9145 137.792C34.9732 137.981 35.0025 138.191 35.0025 138.42V141H34.2865V138.42C34.2865 138.113 34.2158 137.876 34.0745 137.708C33.9358 137.537 33.7238 137.452 33.4385 137.452C33.2278 137.452 33.0305 137.503 32.8465 137.604C32.6652 137.705 32.4972 137.843 32.3425 138.016V141H31.6265V135.108H32.3425V137.488ZM38.7994 138.532C38.7994 138.367 38.7754 138.216 38.7274 138.08C38.6821 137.941 38.6141 137.823 38.5234 137.724C38.4354 137.623 38.3274 137.545 38.1994 137.492C38.0714 137.436 37.9261 137.408 37.7634 137.408C37.4221 137.408 37.1514 137.508 36.9514 137.708C36.7541 137.905 36.6314 138.18 36.5834 138.532H38.7994ZM39.3754 140.432C39.2874 140.539 39.1821 140.632 39.0594 140.712C38.9368 140.789 38.8048 140.853 38.6634 140.904C38.5248 140.955 38.3808 140.992 38.2314 141.016C38.0821 141.043 37.9341 141.056 37.7874 141.056C37.5074 141.056 37.2488 141.009 37.0114 140.916C36.7768 140.82 36.5728 140.681 36.3994 140.5C36.2288 140.316 36.0954 140.089 35.9994 139.82C35.9034 139.551 35.8554 139.241 35.8554 138.892C35.8554 138.609 35.8981 138.345 35.9834 138.1C36.0714 137.855 36.1968 137.643 36.3594 137.464C36.5221 137.283 36.7208 137.141 36.9554 137.04C37.1901 136.936 37.4541 136.884 37.7474 136.884C37.9901 136.884 38.2141 136.925 38.4194 137.008C38.6274 137.088 38.8061 137.205 38.9554 137.36C39.1074 137.512 39.2261 137.701 39.3114 137.928C39.3968 138.152 39.4394 138.408 39.4394 138.696C39.4394 138.808 39.4274 138.883 39.4034 138.92C39.3794 138.957 39.3341 138.976 39.2674 138.976H36.5594C36.5674 139.232 36.6021 139.455 36.6634 139.644C36.7274 139.833 36.8154 139.992 36.9274 140.12C37.0394 140.245 37.1728 140.34 37.3274 140.404C37.4821 140.465 37.6554 140.496 37.8474 140.496C38.0261 140.496 38.1794 140.476 38.3074 140.436C38.4381 140.393 38.5501 140.348 38.6434 140.3C38.7368 140.252 38.8141 140.208 38.8754 140.168C38.9394 140.125 38.9941 140.104 39.0394 140.104C39.0981 140.104 39.1434 140.127 39.1754 140.172L39.3754 140.432ZM45.1809 137.668C45.1595 137.697 45.1382 137.72 45.1169 137.736C45.0955 137.752 45.0662 137.76 45.0289 137.76C44.9889 137.76 44.9449 137.744 44.8969 137.712C44.8489 137.677 44.7889 137.64 44.7169 137.6C44.6475 137.56 44.5609 137.524 44.4569 137.492C44.3555 137.457 44.2302 137.44 44.0809 137.44C43.8809 137.44 43.7049 137.476 43.5529 137.548C43.4009 137.617 43.2729 137.719 43.1689 137.852C43.0675 137.985 42.9902 138.147 42.9369 138.336C42.8862 138.525 42.8609 138.737 42.8609 138.972C42.8609 139.217 42.8889 139.436 42.9449 139.628C43.0009 139.817 43.0795 139.977 43.1809 140.108C43.2849 140.236 43.4089 140.335 43.5529 140.404C43.6995 140.471 43.8635 140.504 44.0449 140.504C44.2182 140.504 44.3609 140.484 44.4729 140.444C44.5849 140.401 44.6769 140.355 44.7489 140.304C44.8235 140.253 44.8849 140.208 44.9329 140.168C44.9835 140.125 45.0329 140.104 45.0809 140.104C45.1395 140.104 45.1849 140.127 45.2169 140.172L45.4169 140.432C45.3289 140.541 45.2289 140.635 45.1169 140.712C45.0049 140.789 44.8835 140.855 44.7529 140.908C44.6249 140.959 44.4902 140.996 44.3489 141.02C44.2075 141.044 44.0635 141.056 43.9169 141.056C43.6635 141.056 43.4275 141.009 43.2089 140.916C42.9929 140.823 42.8049 140.688 42.6449 140.512C42.4849 140.333 42.3595 140.115 42.2689 139.856C42.1782 139.597 42.1329 139.303 42.1329 138.972C42.1329 138.671 42.1742 138.392 42.2569 138.136C42.3422 137.88 42.4649 137.66 42.6249 137.476C42.7875 137.289 42.9862 137.144 43.2209 137.04C43.4582 136.936 43.7302 136.884 44.0369 136.884C44.3222 136.884 44.5729 136.931 44.7889 137.024C45.0075 137.115 45.2009 137.244 45.3689 137.412L45.1809 137.668ZM47.8189 136.884C48.1149 136.884 48.3815 136.933 48.6189 137.032C48.8562 137.131 49.0589 137.271 49.2269 137.452C49.3949 137.633 49.5229 137.853 49.6109 138.112C49.7015 138.368 49.7469 138.655 49.7469 138.972C49.7469 139.292 49.7015 139.58 49.6109 139.836C49.5229 140.092 49.3949 140.311 49.2269 140.492C49.0589 140.673 48.8562 140.813 48.6189 140.912C48.3815 141.008 48.1149 141.056 47.8189 141.056C47.5202 141.056 47.2509 141.008 47.0109 140.912C46.7735 140.813 46.5709 140.673 46.4029 140.492C46.2349 140.311 46.1055 140.092 46.0149 139.836C45.9269 139.58 45.8829 139.292 45.8829 138.972C45.8829 138.655 45.9269 138.368 46.0149 138.112C46.1055 137.853 46.2349 137.633 46.4029 137.452C46.5709 137.271 46.7735 137.131 47.0109 137.032C47.2509 136.933 47.5202 136.884 47.8189 136.884ZM47.8189 140.5C48.2189 140.5 48.5175 140.367 48.7149 140.1C48.9122 139.831 49.0109 139.456 49.0109 138.976C49.0109 138.493 48.9122 138.117 48.7149 137.848C48.5175 137.579 48.2189 137.444 47.8189 137.444C47.6162 137.444 47.4389 137.479 47.2869 137.548C47.1375 137.617 47.0122 137.717 46.9109 137.848C46.8122 137.979 46.7375 138.14 46.6869 138.332C46.6389 138.521 46.6149 138.736 46.6149 138.976C46.6149 139.456 46.7135 139.831 46.9109 140.1C47.1109 140.367 47.4135 140.5 47.8189 140.5ZM53.9819 136.948V141H53.5579C53.4566 141 53.3926 140.951 53.3659 140.852L53.3099 140.416C53.1339 140.611 52.9366 140.768 52.7179 140.888C52.4993 141.005 52.2486 141.064 51.9659 141.064C51.7446 141.064 51.5486 141.028 51.3779 140.956C51.2099 140.881 51.0686 140.777 50.9539 140.644C50.8393 140.511 50.7526 140.349 50.6939 140.16C50.6379 139.971 50.6099 139.761 50.6099 139.532V136.948H51.3219V139.532C51.3219 139.839 51.3913 140.076 51.5299 140.244C51.6713 140.412 51.8859 140.496 52.1739 140.496C52.3846 140.496 52.5806 140.447 52.7619 140.348C52.9459 140.247 53.1153 140.108 53.2699 139.932V136.948H53.9819ZM55.7829 137.536C55.8709 137.437 55.9642 137.348 56.0629 137.268C56.1615 137.188 56.2655 137.12 56.3749 137.064C56.4869 137.005 56.6042 136.961 56.7269 136.932C56.8522 136.9 56.9869 136.884 57.1309 136.884C57.3522 136.884 57.5469 136.921 57.7149 136.996C57.8855 137.068 58.0269 137.172 58.1389 137.308C58.2535 137.441 58.3402 137.603 58.3989 137.792C58.4575 137.981 58.4869 138.191 58.4869 138.42V141H57.7709V138.42C57.7709 138.113 57.7002 137.876 57.5589 137.708C57.4202 137.537 57.2082 137.452 56.9229 137.452C56.7122 137.452 56.5149 137.503 56.3309 137.604C56.1495 137.705 55.9815 137.843 55.8269 138.016V141H55.1109V136.948H55.5389C55.6402 136.948 55.7029 136.997 55.7269 137.096L55.7829 137.536ZM60.7611 141.064C60.4411 141.064 60.1945 140.975 60.0211 140.796C59.8505 140.617 59.7651 140.36 59.7651 140.024V137.544H59.2771C59.2345 137.544 59.1985 137.532 59.1691 137.508C59.1398 137.481 59.1251 137.441 59.1251 137.388V137.104L59.7891 137.02L59.9531 135.768C59.9611 135.728 59.9785 135.696 60.0051 135.672C60.0345 135.645 60.0718 135.632 60.1171 135.632H60.4771V137.028H61.6491V137.544H60.4771V139.976C60.4771 140.147 60.5185 140.273 60.6011 140.356C60.6838 140.439 60.7905 140.48 60.9211 140.48C60.9958 140.48 61.0598 140.471 61.1131 140.452C61.1691 140.431 61.2171 140.408 61.2571 140.384C61.2971 140.36 61.3305 140.339 61.3571 140.32C61.3865 140.299 61.4118 140.288 61.4331 140.288C61.4705 140.288 61.5038 140.311 61.5331 140.356L61.7411 140.696C61.6185 140.811 61.4705 140.901 61.2971 140.968C61.1238 141.032 60.9451 141.064 60.7611 141.064ZM63.0603 137.76C63.1883 137.483 63.3456 137.267 63.5323 137.112C63.719 136.955 63.947 136.876 64.2163 136.876C64.3016 136.876 64.383 136.885 64.4603 136.904C64.5403 136.923 64.611 136.952 64.6723 136.992L64.6203 137.524C64.6043 137.591 64.5643 137.624 64.5003 137.624C64.463 137.624 64.4083 137.616 64.3363 137.6C64.2643 137.584 64.183 137.576 64.0923 137.576C63.9643 137.576 63.8496 137.595 63.7483 137.632C63.6496 137.669 63.5603 137.725 63.4803 137.8C63.403 137.872 63.3323 137.963 63.2683 138.072C63.207 138.179 63.151 138.301 63.1003 138.44V141H62.3843V136.948H62.7923C62.8696 136.948 62.923 136.963 62.9523 136.992C62.9816 137.021 63.0016 137.072 63.0123 137.144L63.0603 137.76ZM68.7944 136.948L66.5344 142.196C66.5104 142.249 66.4797 142.292 66.4424 142.324C66.4077 142.356 66.353 142.372 66.2784 142.372H65.7504L66.4904 140.764L64.8184 136.948H65.4344C65.4957 136.948 65.5437 136.964 65.5784 136.996C65.6157 137.025 65.641 137.059 65.6544 137.096L66.7384 139.648C66.781 139.76 66.817 139.877 66.8464 140C66.8837 139.875 66.9237 139.756 66.9664 139.644L68.0184 137.096C68.0344 137.053 68.061 137.019 68.0984 136.992C68.1384 136.963 68.1824 136.948 68.2304 136.948H68.7944Z" fill="white"/>
</svg>
